<svg xmlns="http://www.w3.org/2000/svg" viewBox="0 0 99.21 84.58"><defs><style>.cls-1{fill:#1d1d1b;}</style></defs><g id="Layer_2" data-name="Layer 2"><g id="Layer_1-2" data-name="Layer 1"><path class="cls-1" d="M79.69,29.85a17.62,17.62,0,0,0-24.95-.13L37.06,47.31a7,7,0,0,1-10,.07h0a7,7,0,0,1,0-10L44.74,19.72a32,32,0,0,1,45.18-.1h0a32,32,0,0,1-.09,45.18L72.11,82.53a7,7,0,0,1-10,0h0a7.05,7.05,0,0,1,.07-10L79.83,54.8a17.61,17.61,0,0,0-.14-24.95Z"/><path class="cls-1" d="M19.52,54.73a17.62,17.62,0,0,0,25,.13L62.15,37.27a7.13,7.13,0,0,1,10.11,0l-.08-.07a7,7,0,0,1,0,9.95L54.47,64.87A32,32,0,0,1,9.29,65h0a32,32,0,0,1,.09-45.18L27.1,2.05a7,7,0,0,1,9.95,0h0a7.05,7.05,0,0,1-.07,10L19.38,29.78a17.61,17.61,0,0,0,.14,24.95Z"/></g></g></svg>