<svg xmlns="http://www.w3.org/2000/svg" width="370.904" height="173.746" viewBox="0 0 370.904 173.746">
  <g id="Group_197" data-name="Group 197" transform="translate(-1241.564 -264.27)">
    <path id="Path_50" data-name="Path 50" d="M21757.58-19523.883l28.084-17.449,11.893,21.252c26.838-34.992,71.039-23.746,84.781-8.85l-17.41,27.6s-11.57-8.664-26.027-8.219c-50.383,12.344-17.018,45.207,38.75,20.217l14.17,25.592c-39.354,29.76-78.016,10.324-78.016,10.324,2.162,23.133,5.3,61.754,3.775,82.928h-33.543C21785.895-19427.965,21779.531-19488.111,21757.58-19523.883Z" transform="translate(-20280 19808)" fill="none" stroke="#707070" stroke-width="1"/>
    <path id="Path_51" data-name="Path 51" d="M21714.889-19447.023c9.928-.016,16.2,8.74,16.2,16.934s-7.418,15.869-16.2,15.785-16.205-7.592-16.205-15.785S21704.961-19447.008,21714.889-19447.023Z" transform="translate(-20280 19808)" fill="none" stroke="#707070" stroke-width="1"/>
    <path id="Path_52" data-name="Path 52" d="M21755.686-19431.143c-.344-21.828-18.908-40.412-40.668-40.412s-40.82,17.783-40.934,40.412,18.654,41.486,40.871,41.371S21756.029-19409.314,21755.686-19431.143Z" transform="translate(-20280 19808)" fill="none" stroke="#707070" stroke-width="1"/>
    <path id="Path_53" data-name="Path 53" d="M21757.58-19523.883l28.084-17.449,11.893,21.252c26.838-34.992,71.039-23.746,84.781-8.85l-17.41,27.6s-11.57-8.664-26.027-8.219c-50.383,12.344-17.018,45.207,38.75,20.217l14.17,25.592c-39.354,29.76-78.016,10.324-78.016,10.324,2.162,23.133,5.3,61.754,3.775,82.928h-33.543C21785.895-19427.965,21779.531-19488.111,21757.58-19523.883Z" transform="translate(-20515.33 19808)" fill="none" stroke="#707070" stroke-width="1"/>
  </g>
</svg>
