<svg xmlns="http://www.w3.org/2000/svg"  viewBox="0 0 584.041 1721.213">
  <path id="Path_49" data-name="Path 49" d="M13420.5-23146.99s-24.106,40.2,27.157,75.654,156.642,25.422,177.9,66.164-37.048,45.852-37.048,45.852a77.4,77.4,0,0,1-27.1,3.885c-15.826-.422-36.2-5.57-36.2-5.57a57.483,57.483,0,0,0-13.979-2.588c-6.743-.2-13.608,10.1-13.608,10.1a26.024,26.024,0,0,1-10.527,9.6c-7.172,3.529-9.119,4.779-18.16,4.516s-18-5.566-18-5.566-2.558-2.205-4.015-2.205-1.814,2.205-1.814,2.205v24.865s0,3.262,2.563,4.557,7.67.625,7.67.625l18.78-3.109s7.026-1.9,9.843,3.109a10.5,10.5,0,0,1,0,9.844s-3.886,5.869-3.886,11.236,3.886,10.232,3.886,10.232,5.439,4.953,11.4,4.662,12.436-5.828,12.436-5.828,3.539-4.436,3.539-9.066-3.539-9.455-3.539-9.455l-2.2-1.781s-3.05-3.873-2.03-6.633,6.109-4.408,6.109-4.408,7.626-.3,13.406,0a62.674,62.674,0,0,1,9.714,1.2s5.821,1.342,8.605-.576,2.532-7.1,2.532-7.1l.778-78.07s-.193-3.141-1.942-4.533-5.053-1.037-5.053-1.037l-28.041,1.037s-5.2-1.189-6.929-4.775,0-9.57,0-9.57a20.03,20.03,0,0,0,4.145-12.951c-.112-8.191-6.8-12.174-14.766-12.174s-16.93,4.879-17.1,12.174,7.351,14.289,6.477,20.854-9.973,5.406-9.973,5.406l-20.335-2.039s-3.465-.389-5.181,1.166-1.684,5.051-1.684,5.051v19.688s-.519,4.4,1.684,6.086,7.124.648,7.124.648l12.952-2.072s15.106-2.152,13.826,15.447-10.977,15.086-10.977,15.086a27.251,27.251,0,0,1-9,0c-3.95-.891-7.2-7.9-15.607-7.186s-24.8,6.475-24.8,6.475-12.863,1.91-24.059.711-27.3-6.25-35.1-5.5a137.662,137.662,0,0,0-16.838,2.98,95.791,95.791,0,0,1-13.341,3.5,27.351,27.351,0,0,1-9.456,0,10.973,10.973,0,0,1-3.779-3.5,18.511,18.511,0,0,1-2.049-5.7l-.905-28.625s-.616-5.342,2.2-7.9,9.066-2.332,9.066-2.332l18.264-1.033s2.765.482,3.412,2.328-.822,5.053-.822,5.053a102.036,102.036,0,0,0-2.59,11.623c-1.32,7.561,7.739,17.262,15.154,17.262s17.339-8.8,14.5-17.262-6.6-12.789-6.6-12.789-1.555-2.105-.907-3.887,3.5-3.236,3.5-3.236a57.156,57.156,0,0,1,13.087-3.367,74.283,74.283,0,0,1,14.632,0,5.982,5.982,0,0,1,3.8,2.766c1.1,2.2.6,6.043.6,6.043v20.723s.13,5.893,3.757,7.381,10.75-1.424,10.75-1.424,9.276-4.453,14.781-2.283,7.237,10.961,7.237,10.961v9.2s-2.854,10.729-11.657,10.75-10.361-2.848-10.361-2.848-5.049-2.436-7.736,0-3.014,9.744-3.014,9.744a70.47,70.47,0,0,0,1.719,10.008,49.573,49.573,0,0,0,3.2,8.549s1.23,4.014,0,6.215-4.922,2.59-4.922,2.59l-26.163,2.332a8.447,8.447,0,0,1-4.146-4.143c-1.036-2.783,0-6.994,0-6.994s2.237-6.869,2.331-11.787-4.378-14.609-16.707-12.693-13,10.736-13.438,15.932,7.013,11.594,6.346,17.354-6.144,4.074-16.837,5.732-17.866-.832-18.65-6.734-3.788-31.084-3.788-31.084-1.555-9.84-6.038-10.24-11.408,4.883-11.408,4.883-16.109,11.736-36.76,11.186-28.42-5.518-45.721-15.027-29.595-11.4-29.595-11.4l-11.14-.775s-13.705-.572-16.2,16.563,16.2,28.09,16.2,28.09c21.866,14.006,92.413,26.025,91.956,88.313s-59.849,74.791-84.229,67.973-14.849-29.645,11.253-26.314,47.249,35.713,72.794,41.18,36.1.682,36.1-7.643-8.317-8.1-16.855-7.223-78.434,20.6-50.688,52.043,203.786,11.9,293.537,63.072,79.531,131.883,17.384,167.025-122.441,4.617-100.248-33.3,80.384,14.5,128.735,62.516,31.261,98.2,55.115,107.951,35.143-42.469,17.017-60.594-85.687-30.994-91.173,10.688,63.858,106.207,50.111,154.389-105.1,38.336-105.1,38.336-11.233-6.41-9.963-12.533,8.443-11.756,15.044-11.955,13.924,5.035,11.358,11.158-10.112,12.283-21.62,13.33-24.41-9.146-24.41-9.146-12.105-10.062-14.646-18.133-.872-11.955,4.483-14.146,13.774.846,16.938,5.379,3.985,11.184-4.284,12.754-28.794-6.477-28.794-6.477-34.033-9.877-59.978-46.777-40.227-62.916-40.227-62.916-1.63-2.631-1.01-3.355,5.94,1.35,2.63,3.355-5.918,6.033-12.38,5.125-13.755-5.289-13.469-8.754,8.554-1.855,14.611-5.107a32.7,32.7,0,0,0,9.617-7.9,53.586,53.586,0,0,1,4.631,7.125c1.157,2.557-1.4,6.506-2.148.775s-.1-9.789-.862-20.594a87.92,87.92,0,0,0-4.243-20.594s8.937-3.109,17.874,0,10.168,5.311,17.874,12.434a80.076,80.076,0,0,1,12.952,16.061s1.295,2.686,0,3.885-5.181.908-5.181.908-13.826-5.537-26.94-4.793-25.516,7.771-25.516,7.771-14.669,6.744-19.3,19.818-5.182,15.8-5.182,15.8-1.85,5.039-3.954,5.719-4.465-3-4.465-3-10.076-11.3-10.75-21.24.6-26.6.6-26.6.125-3.6,1.225-4.262,3.174,1.631,3.174,1.631l13.378,13.2s1.543,1.391.681,2.607-2.9-.543-2.9-.543l-27.459-34.408a4.8,4.8,0,0,1-1.27-3.9c.408-2.219,2.9-4.977,2.9-4.977l37.683-22.822s6.358-3.852,6.775-1.793-5.779,6.178-5.779,6.178l-36.863,21.818a20.265,20.265,0,0,1-3.448.514c-1.5.041-4.223-3.895-4.223-3.895s-8.632-15.268-11.509-30.867,0-31.533,0-31.533,1.368-7.361,3.373-8.129,8.284,1.455,8.284,1.455,19.6,5.273,34.547,17.934,25.258,32.7,25.258,32.7l5.778,13.2s1.619,6.35,0,6.176-6.477-6.873-6.477-6.873l-5.978-11.559s-1.347-3.012,0-5.33,10.262,7.82,10.262,7.82l5.181,9.068a11.571,11.571,0,0,1,0,5.379,11.44,11.44,0,0,1-2.988,4.449l-36.49,21.953s-2.74,2.063-5.405,1.465-5.256-3.855-5.256-3.855l-8.469-11.756s-.314-2.844.931-3.549,4.051.727,4.051.727a59.822,59.822,0,0,1,7.771,7.205,51.077,51.077,0,0,1,5.923,9.764,158.864,158.864,0,0,0,11.094,12.947c2.536,2.65,6.354,5.158,8.888,7.9,8.309,8.992,13.252,15.121,13.252,15.121s8.665,14.051,17.285,31.25c6.866,13.7,13.72,30.174,15.742,37.568,4.484,16.4,3.785,18.732,3.785,18.732s-1.594,10.861-5.778,15.045-9.439,4.059-10.959,1.691-.586-8.594,4.882-11.158,13.662-4,16.987.9,3.188,9.357-3.687,18.68-32.082,10.859-32.082,10.859-7.472-8.367-7.272-14.645,4.806-9.9,8.767-9.6,8.1,3.836,7.075,10.791-11.856,16.168-11.856,16.168-10.263,6.318-37.562,6.275-22.635,12.658-52.758,25.773-64.961-8.84-72.731,11.982,20.126,26.9,16.839,19.529-12.056,11.9-34.174,15.393-48.594-29.965-62.017,35.385-33.373,168.367,11.31,212.568,106.684-39.01,167.421-35.76,27.577,53.641,75.528,48.764,88.7-30.072,116.276-68.27-13.112-65.049-48.669-76.426-90.578-4.033-93.559,30.914,61.36,86.961,124.347,100.777,68.333-38.41,124.411-49.787,97.661,21.086,88.413,66.957-101.827,80.613-101.827,80.613a93.1,93.1,0,0,1-35.727,4.684c-20.141-1.295-44.835-9.863-44.835-9.863s-1.693-3.238-.8-4.086,4.384.7,4.384.7,11.633,9.465,20.226,9.465,12.212-3.723,14.147-9.465a20.68,20.68,0,0,0,0-11.656s-1.568-4.012-5.679-3.787-10.761,4.686-10.761,4.686-15.007,7-25.406,7.371a21.918,21.918,0,0,1-16.19-5.877l-11.955-5.582s-16.788-1.328-19.728-.6-12.006,1.506-12.006,1.506c-10.088-.9-26.251-5.133-28.345-5.092s-3.112,3.164-3.885,2.891,1.144-3.24.8-3.986-8.17-6.574-8.17-6.574-4.011-1.918-6.277,0-2.789,7.67-2.789,7.67,2.018,12.031,7.971,19.527,15.841,10.461,15.841,10.461,13.351.6,21.122,0,17.635-.6,17.635-.6,13.849,8.6,20,19.127,5.479,6.121,9.788,11.559,7.448,10.188,7.448,10.188a5.31,5.31,0,0,0,4.483,1c2.989-.473,7.473-2.889,7.473-2.889s1.319-2.168.672-2.891-3.263,0-3.263,0-4.882,1.994-4.882,4.783,4.882,6.377,4.882,6.377a10.583,10.583,0,0,0,8.07,1.893c5.156-.672,12.554-4.584,12.554-4.584s2.6-2.975,1.9-3.646c0,0-1.105-1.133-4.688.957s-11.6,6.27-11.557,8.369-2.947,8.477,10.137,18.807,16.838,9.465,16.838,9.465h16.34s7.385-.52,6.427,8.617-1.979,11.416-9.194,15.771-19.669,1.652-19.669,1.652-2.988-.6-3.984-1.891,0-3.289,0-3.289,2.653-3.275,1.693-4.084-3.061.982-6.077,5.18-13.624-3.418-25.206-10.635-21.123-18.232-21.123-18.232-1.905-2.924-4-1.23,3.2,5.613,3.2,5.613,13.325,11.291,24.21,18.434a100.5,100.5,0,0,0,19.328,10.135s5.168,1.813,5.168,5.107-.847,4.906-5.168,8.07-12.8,2.291-12.8,2.291a183.331,183.331,0,0,1-18.531-10.361c-9.266-5.979-18.532-13.551-18.532-13.551a26.18,26.18,0,0,0-4.881-2.889c-1.968-.723-2.416-.723-2.989,0s.11,1.543,1.729,2.889,1.168-.5,6.141,3.264,6.339,6.426,13.749,11.781,10.9,4.65,14.5,8.867.386,6.078-2.74,8.568-9.765,1.395-9.765,1.395l-18.531-11.557s-13.461-8.586-17.036-10.264,0,2.99,0,2.99l10.76,6.576,11.606,6.775s4.745,2.107,0,6.676-14.2,0-14.2,0l-7.473-3.389s-2.446-1.275-6.838,0-10.729,5.1-10.729,5.1-7.453,2.205-10.347-.766-3.046-6.055-1.226-11.113,7.17-6.654,8.506-9.119-3.161-.74-3.161-.74l-18.624,10.855s-3.6,3.707-10.192-3.582,0-13.508,0-13.508l8.276-6.9s.867-1.434-1.2-1.912-5.438,2.557-5.438,2.557l-11.567,9.5s-9.082,2.807-13.765-5.762,5.082-15.092,5.082-15.092l7.5-1.18s3.383.455,1.788-1.836-6.671-1.865-6.671-1.865l-13.47,4.881s-4.693,1.594-7.408-3.535-1.228-7.662,2.188-9.936,8.25-2.238,8.25-2.238a77.7,77.7,0,0,0-18.945-17.484c-11.294-7.08-19.144-6.312-26.229-10.834s-6.985-5.617-10.858-8.469-7.386-3.375-21.147-7.869-94.481,19.025-71.177,90.785,90.1,8.643,158.8,44.016,76.214,88.781,115.98,97.475,74.1-57.346,113.831-32.924,2.959,57.709-31.074,38.473-13.5-63.209,14.8-65.176,95.256,34.287,75.041,92.025c-10.859,31.016-65.82,43.49-122.563,49.721s-87.316-3.924-101.574-7.971-24.961-20.232-17.834-27.684,17.146,2.836,17.146,2.836,10.885-11.131,18.415-2.836-8.333,33.088-31.116,28.451" transform="translate(-13077.947 23147.678)" fill="none" stroke="red" stroke-linecap="round" stroke-linejoin="round" stroke-width="1"/>
</svg>
