<svg xmlns="http://www.w3.org/2000/svg" width="601.098" height="152.256" viewBox="0 0 601.098 152.256">
  <path id="Path_108" data-name="Path 108" d="M872-19405.348c-71.437-2.047-95.45-13-254.362,18.787-79.221,15.844-106.95-7.291-116.35-34.959-6.014-17.7-5.767-36.668-1.672-50.555a72.465,72.465,0,0,1,6.715-15.693c2.437-4,9.127-12.621,19.823-21.082,11.9-9.416,30.247-16.945,48.269-18.18,19.066-1.311,40.5,5.529,59.813,34.172,10.26,15.219,12.275,30.117,12.277,44.188,0,14.438-3.51,28.846-11.075,40.119-22.073,32.9-70.888,45.887-100.789,15.281a73.559,73.559,0,0,1-11.131-14.445,86.115,86.115,0,0,1-11.573-30.4c-4.821-29.488,10.256-51.844,11.573-51.625,1.929.32,64.81,66.1,64.81,66.1s4.972,2.844,9.888,2.119,6.351-3.312,12.36,0,4.24,7.006,8.259,7.414,28.45-37.539-1.2-77.336c-5.544-7.441-13.365-11.9-20.439-15.32-15.46-7.467-32.682-5.123-45.344-1.252-10.857,3.316-18.056,7.746-17.207,9.51,2.21,4.586,56.5,55.4,60.391,60.391s3.453,6.789,3.176,13.061a26.988,26.988,0,0,0,1.766,10.947l8.122,11.654s-31.543,26.514-73.455,0c-17.9-11.322-36.125-31.461-78.749-29.629-56.149,4.238-92.08,21.691-138.076,29.629s-45.908,2.119-45.908,2.119" transform="translate(-271.416 19527.684)" fill="none" stroke="red" stroke-linecap="round" stroke-linejoin="round" stroke-width="1"/>
</svg>
