<svg xmlns="http://www.w3.org/2000/svg" width="265.435" height="303.883" viewBox="0 0 265.435 303.883">
  <path id="Path_89" data-name="Path 89" d="M54.127,269.534S228.389,22.158,223.559,118.815s-107.951,35.909-107.951,35.909-23.335.307-46.6,17.506-37.066,61-46.021,54.114,69.029-50.831,81.232-71.62,40.789-45.161,42.288-51.526-2.1-11.724-2.531-22.476.46-10.937-1.007-19.8-2.446-13.81-6.132-13.69-4.58,5.635-4.648,13.69.412,15.777,0,18.6-1.207,2.679-1.909,6.032a50.674,50.674,0,0,1-1.956,6.854c-.447,1.409-5.492,5.715-8.893,9.5s-2.416,4.255-4.718,5.637-14.288,3.935-23.018,11.277S79.789,136.9,79.789,136.9s1.764.56-12.548,6.369C40.012,150.074-5.389,172.582.525,179.248c5.667,6.392,63.462-29.757,68.484-39.294s3.076-15.379,3.666-19.055,42.933-87.234,42.933-87.234,3.511-6.139,8.278-3.621,2.9,8.426,2.9,8.426a110.056,110.056,0,0,1-5.345,19.088c-3.666,9.293-17.7,32.318-20.617,23.165s45.686-3.566,45.686-3.566,1.9-28.78-3.538-38.687a23.178,23.178,0,0,1-1.991-18.58s2.439-5.637,4.515-6.112,3.8,4.21,3.8,4.21a192.41,192.41,0,0,1,8.338,29.245c3.628,17.451-2.016,29.924-2.016,29.924s9.892-7.691,12.016-17.164S174.359,3.578,172.553.54s-10.642,7.151-12.978,19.855c-.792,4.3-1.682,6.677,0,14.467s3.623,16.5,3.623,16.5,2.594,6.834,5.312,6.834,5.565-6.834,5.565-6.834,9.982-28.178,15.2-38.625-4.1-15.122-9.033-3.811-11.736,47.238-11.736,47.238" transform="translate(43.388 1.146) rotate(9)" fill="none" stroke="#303030" stroke-linecap="round" stroke-linejoin="round" stroke-width="2"/>
</svg>
