<svg xmlns="http://www.w3.org/2000/svg" width="602.283" height="96.016" viewBox="0 0 602.283 96.016">
  <path id="Path_109" data-name="Path 109" d="M873-19197.352c-28.516,4.439-68.824-24.988-97.753-24.469s-39.94,16.666-59.735,17.641-27.807-17.789-58.132-15.482-26.3,12.283-42.377,11.408-19.413-16.93-35.4-16.006-8.845,9.795-8.845,9.795,8.76,3.006,8.845-6.467,0-23.777,0-23.777H565.811s.321,21.227.476,27.391,9.9,6.9,11.413,9.064,1.707,8.748.571,10.719-8.115,1.07-10.938,0-6.837-8.355.666-11.086,16.789,19.078,0,19.266-24.238-3.732-32.338-4.66c-4.52-.518-8.517,1.664-9.178,4.66-.438,1.836.644,4.537,9.178,4.756,19.308.5,76.849,0,76.849,0s5.992.574,7.894-3.42a8.815,8.815,0,0,0,0-7.518l-41.468-75.328s-2-3.705-5.9-3.705-6.277,3.705-6.277,3.705l-37.378,69.717s-12.269,18.352-32.813,16.549-34.24-14.453-38.329-16.549-10.581-4.086-23.492-1.043-19.5,8.654-28.153,13.217-26.227,9.42-52.216,9.42-51.74-9.42-51.74-9.42l-30.721-10.271" transform="translate(-271.288 19275.07)" fill="none" stroke="red" stroke-linecap="round" stroke-linejoin="round" stroke-width="1"/>
</svg>
