<svg xmlns="http://www.w3.org/2000/svg" width="1599.418" height="7129.158" viewBox="0 0 1599.418 7129.158">
  <path id="Path_106" data-name="Path 106" d="M88.446,60.566C84.927,103.189,75.9,267.282,179.378,354.682,231.665,398.847,306.322,408.466,328.829,409a13.86,13.86,0,0,0,13.837-16.963q-1.665-7.254-4.113-17.754c-4.2-18-13.921-71.077-18.055-93.9a12.59,12.59,0,0,1,8.53-14.221,300.97,300.97,0,0,1,34.408-8.91,360.91,360.91,0,0,1,38.593-4.79,14.99,14.99,0,0,1,15.377,10.362,430.091,430.091,0,0,1,14.034,55.4c4.248,24.256,5.651,49.7,6.11,62.618a9.253,9.253,0,0,1-8.277,9.541c-20.432,2.155-70.762,7.193-72.485,4.736-2.164-3.086,20.426-6.8,31.377-6.8s22.156,7.759,11.9,9.735-6.947-8.508,1.965-12.668c4.993-2.33,14.742-2.926,22.351-3a9.283,9.283,0,0,0,9.11-10.617c-1.759-12.1-4.927-32.611-8.852-52.458-3.648-18.449-7.955-36.324-10.827-47.709a15.039,15.039,0,0,0-16.043-11.29c-8.546.829-20.219,2.169-31.4,4.136q-14.726,2.674-29.2,6.5A12.628,12.628,0,0,0,328,285.619l22.287,111.722a13.89,13.89,0,0,0,14.035,11.176c9.885-.3,24.473-1.192,37.711-3.764a181.881,181.881,0,0,0,35.418-11.035A9.24,9.24,0,0,0,443,384.43q-2.573-29.52-7.994-58.691c-.681-11.453-5.751-35.953,2.76-43.746,8.627-7.934,29.348-.125,58.391,8.039,54.318,15.271,149.576,41.807,197.419,55.124a33.468,33.468,0,0,0,40.241-20.319c6.4-16.763,14.544-38.677,21.539-59.334,9.219-27.221,16.442-52.252,20.3-66.183a13.451,13.451,0,0,0-7.867-16.048c-20.1-8.227-65.6-26.2-117.9-42.537-49.142-15.357-95.567-27.794-119.265-33.938a19.062,19.062,0,0,0-22.55,11.527c-8.409,21.552-23.5,60.864-33.013,89.274-13.754,41.086-15.826,59.363-15.826,59.363s13.01-24.953,19.441-41.628,12.481-16.442,12.481-16.442,32.084,5.149,73,16.442c29.909,8.254,64.536,19.789,81,25.4a12.731,12.731,0,0,1,8.528,13.684c-1.048,8.107-2.889,19.557-5.788,29.028a89.7,89.7,0,0,1-7.41,17.67,14.536,14.536,0,0,1-16.188,7.112c-8.061-1.977-20.014-5.078-32.457-8.907-13.556-4.17-27.694-9.207-36.583-12.472a12.7,12.7,0,0,1-8.245-13.259c1.123-10.735,3.516-27.762,8.063-38.159,7.031-16.078,9.082-13.446,9.082-13.446L724.43,277.152s10.272-25.274,17.147-47.6q4.884-15.925,8.418-32.215A11.424,11.424,0,0,0,742.98,184.3c-18.4-7.207-62.392-24.107-105.985-38.387-41.3-13.529-82.254-24.706-101.779-29.862a13.019,13.019,0,0,0-15.661,8.43c-2.151,6.373-5.069,14.922-8.4,24.415-7.041,20.071-15.924,44.392-15.924,44.392s6.9-26.211,13.27-45.4A294.094,294.094,0,0,1,520.037,118a13.268,13.268,0,0,0,1.012-3.422,42.939,42.939,0,0,0,.491-5.513,26.447,26.447,0,0,0-.64-5.616,16.748,16.748,0,0,0-.476-1.656,319.4,319.4,0,0,1-10.8-41.228c-2.6-13.309-4.75-28.651-6.168-39.866a11.35,11.35,0,0,1,13.9-12.47c13.158,3.15,36.683,9.174,77.955,20.648,81.238,22.586,231.238,66.27,231.238,66.27s1.2.472,1.836-1.2l.019-.05a2,2,0,0,0-1.284-2.565C816.062,87.7,734.51,61.009,660.669,39.067,603.6,22.115,551.135,7.987,526.133,1.38a11.333,11.333,0,0,0-14.2,11.936q1.54,17.12,4.329,34.1,3.81,21,9.668,41.544a12.382,12.382,0,0,0,7.789,8.305c18.024,6.341,73.663,25.759,122.584,41.22,44.62,14.1,83.653,24.929,100.269,29.431a14.184,14.184,0,0,0,14.743-4.759c2.624-3.248,6.141-7.843,10.666-14.226,8.5-11.993,20.562-30.3,26.837-39.911a5.591,5.591,0,0,0-3.171-8.446C785.216,94.856,724.79,78.03,659.069,60.58c-80.973-21.5-140.83-41.821-140.83-41.821A1403.887,1403.887,0,0,1,663.286,54.1c62.939,19.021,132.385,40.824,156.388,48.386a6.578,6.578,0,0,1,3.341,10.146L776.559,176.51s-31.172,93.168-28.129,105.179c1.844,7.285,11.968,12.209,22.39,15.407a56.838,56.838,0,0,0,38.508-2.081c12.625-5.255,32.352-9.71,51.415,1.342,31.541,18.289,32.348,50.993,19.086,73.989s-47.822,28.879-67.512,20.645-45.408-26.723-27.525-64.492a41.1,41.1,0,0,1,8.338-11.963c5.445-5.326,13.751,1.916,9.345,8.129a25.256,25.256,0,0,0-4.424,12.72c-2.806,32.7,36.973,47.27,56.665,34.961s15.878-46.32,4.824-52.492c-8.6-4.8-6.739,7.266-5.488,12.861a6.122,6.122,0,0,1-3.183,6.9,10.574,10.574,0,0,1-6.4.637c-8.428-1.406-22.7-11.5-28.729,0-3.426,6.537.153,12.18,3.883,15.834a6.407,6.407,0,0,1-.393,9.4c-6.8,5.892-16.155,15.345-10.926,18.966,7.838,5.426,18.284-13.949,1.606-16.966s-34.852-1.05-37.816,0c-6.833,2.411.4,27.72-5.227,29.528s-102.092-6.519-102.092-6.519S637.369,528.62,632.127,526.143,659.811,385.1,659.811,385.1s-36.359-13.89-59.41-20.676q-4.234-1.245-7.877-2.188A27.534,27.534,0,0,0,559.7,379.553c-8.736,24.2-22.283,62.7-27.667,83.325-1.666,6.376-2.944,11.978-3.924,16.855a21.52,21.52,0,0,0,21.362,25.733,169.2,169.2,0,0,1,33.245,2.619c26.315,5.16,47.573,19.5,47.573,19.5s84.427,26.664,93.9,21.062S769.231,403.8,762.038,400.232,731.112,525.624,721.909,533.8,649.2,516.2,647.18,521.182s46.907,17.848,80.358,21.059c31.552,3.029,109.468-166.711,133.515,21.215a43.1,43.1,0,0,1-32.021,47.152L372.05,728.594a110.621,110.621,0,0,0-81.3,87.957l-25.3,143.967a40.572,40.572,0,0,0,39.734,47.6l24.078.134a27.6,27.6,0,0,1,25.044,16.087c4.919,10.871,15.635,21.748,38.818,12.529,40.221-15.994,47.312,10.569,47.312,10.569v32.937l21.409-27.993s17.99-25.966,27.8-32.933,22.838-9.111,22.838-9.111L612.532,992.78a54.7,54.7,0,0,0,23.816-9.677c11.563-8.392,11.024-18.114,11.024-18.114V881.206s1.8-11.918-8.174-19.678-22.963-4.408-22.963-4.408L372.758,898.858s-5.029.116-14.654,9.133-9.433,17.424-9.433,17.424v66.522a5.694,5.694,0,0,0,5.694,5.694,12.215,12.215,0,0,0,12.214-12.211v-46s-.594-14.685,6.179-23.258S393.7,905.138,393.7,905.138l48.379-7.511s.346,11.468,9.48,17.067,84.6,16.075,84.6,16.075,34.5,3.656,39.621,13.037c3.9,7.15,3.893,25.609,3.669,33.981a1.657,1.657,0,0,0,2.835,1.207c7.625-7.691,27.529-27.555,32.719-30.63,6.459-3.828,17.035-1.9,17.035-1.9l21.869,1.9s12.24,2.036,23.957-1.9,11.764-16.829,11.764-16.829V854.593s.886-9.255-7.547-18.625-17.571-10.807-17.571-10.807L477.182,788.929s-6.759-1.72-17.357,4.859-10.381,14.545-10.381,14.545v56.55a8.438,8.438,0,0,0,9.909,8.308,8.643,8.643,0,0,0,6.966-8.6V821.1s-.344-8.989,7.041-13.774,21.578-2.5,21.578-2.5l154.9,30.473a28.975,28.975,0,0,1,14.669,6.577c6.522,5.75,5.506,16.27,5.506,16.27v55.581s3.342,18.48-22.64,15.9a83.955,83.955,0,0,0-29.686,2.362c-7.452,1.932-17.062,9.642-21.8,13.755a1.655,1.655,0,0,1-2.737-1.079c-.379-4.367-2.829-11.965-13.862-19.258-12.554-8.3-50.675-14.761-69.216-17.507a9.025,9.025,0,0,0-10.347,8.93v99.045a9.29,9.29,0,0,0,12.041,8.9q2.975-.951,6.026-1.646c7.029-1.687,38.19-7.292,60.157-11.186A173.59,173.59,0,0,1,622.9,1009.9l696.836,58.971a117.186,117.186,0,0,1,106.517,103.2c7.091,61.3,12.888,148.562-12.378,143.707-38.745-7.445-63.991-20.669-62.936-24.41s17.576-2.809,39.75,6.6,24.592,11.741,26.857,18.945-3.55,8.36-9.39,15.5c-2.871,3.52-9.965,20.661-9.965,20.661s-4.141,18.375-5.539,19.086c-1.361.69-8.383-3.969-18.119-6.86a196.638,196.638,0,0,0-20.8-4.716s-19.455,1.212-19.455-26.053,14.207-44.27,14.207-44.27-15.789,4.3-26.77-14.043-16.794-41.644-16.794-41.644-2.59-13.891-4.528-15.056-19.273.868-19.273.868-8.17,1.3-16.52,1.738-8.236.235-16.9,0-24.8,7.989-20.965,12.45c1.969,2.293,14.637,3.035,28.32,8.592s23.221,9.529,23.221,9.529l47.484-34.617s51.4-36.844,46.575-41.52c-4.422-4.293-27.577,11.551-52.459,29.312-25.868,18.469-53.479,39.165-56.049,42.829.006-.145.035.069.035.069a9.247,9.247,0,0,0,3.611,2.325,42.67,42.67,0,0,0,7.666,1.6s-9.435,4.139-20.084-2.289-23.781-15.938-33.109-14.348c-4.865.844-7.4,6.449-8.455,11.641s4.976,7.843,5.267,9.836c.307,1.983-2.484,1.6-4.371,1.886s-41.947-36.879-49.775-38.535c-3.652-.773-65.025,25.1-123.145,51.132-51.765,23.2-100.837,46.681-103.81,48.282-6.264,3.383-7.043,5.968-7.207,6.843-.688,3.681,17.213,15.872,34.885,30.54,7.884,6.543,17.185,12.074,24.357,17.637,9.475,7.344,15.744,13.129,18.2,8.847,1.916-3.328-2.607-6.3-9.461-11.367-6.957-5.144-54.238-36.179-58.752-46.179s218.871-95.938,225.879-96.954c2.014-.293,6.135,4.012,12.719,8.7,5.912,4.211,14.275,8.793,20.875,14.683,9.236,8.231,14.193,18.449,16.764,16.934s.728-8.5,4-9.852,22.818,3.492,22.818,3.492-1.26-.593-3.545.891c-8.6,5.566-33.416,23.484-30.652,26.637,2.648,3.034,26.174-13.043,35.011-21.168,1.969-1.809-.814-6.36-.814-6.36s6.844.465,5.455,7.454c-.392,2.006-3.324,3.8-2.9,5.378.633,2.484,5.793,3.114,5.793,4.965,0,2.575.82-1.449-2.893,0-3.691,1.433-4.053,8.188-11.922,5.762s7.7-15.372,10.735-16.1,7.466-1.263,8.058,10.343c.576,11.34,24.194,15.481,21.664,21.071s-14.162-8.3-14.162-8.3-3.187,10.364,20.522,23.138,69.228,48.867,77.056,59.108-182.371,106.591-193.3,106.786-42.735-27.618-47.579-26.075,30.774,13.645,25.444,23.962c-5.324,10.3-39.346-17.973-45.129-10.544s26.693,20.61,20.623,26.595c-3.58,3.539-20.563-2.981-33.44-7.043-8.7-1.5-16.382,3.062-16.382,3.062s4.773-14.828,16.382-24.465,30.039-14.093,30.039-14.093a260.15,260.15,0,0,0-16.285-27.235c-9.027-12.922-26.4-19.625-26.4-19.625s-21.037-8.134-35.2-14.664-15.346-9.371-21.441-11.48-19.293,4.562-7.651,22.789,42.26,26.652,43.432,23.547c.521-1.379,3.652-5.536-18.451-17.84s-28.59-6.254-30.268-2.352,3.432,24.1,5.287,38.231,13.668,20.793,20.426,21.183,32.2,20.34,31.881,27.515-45.737,12.419-110.666,4.477S831.016,1494.9,788.5,1495.9c-22.517.528-52.4-25.14-75.537-49.405a94.574,94.574,0,0,0-140.619,4.323L527.1,1504.38a314.065,314.065,0,0,1,13.841,41.954c6.284,24.43,11.3,55.784,11.3,55.784s-33.8-28.7-42.042-58.241,9.006-59.931,9.006-59.931,38.723,18.609,41.4,63.86a307.377,307.377,0,0,1-6.893,83.443l-41.127-13.841s-19.771-.886-35.813-14.008-31.93-41.7-26.553-38.722c9.4,5.177,39.332-.929,69.049,15.976s34.43,50.616,34.43,50.616-6.1-15.146-30.835-33.013a95.835,95.835,0,0,0-51.812-17.6s16.452,3.407,43.149,17.6,33.908,27.559,38.037,36.856S551,1672.39,551,1672.39s9.05-30.348,29.872-48.681,53.56-24.662,53.56-24.662-6.472-.762-22.515,38.425-43.8,38.014-43.8,38.014l-17.149-3.1a177.81,177.81,0,0,0,29.43-23.443,246.26,246.26,0,0,0,23.876-27.593,116.093,116.093,0,0,1-20.91,29.406c-14.316,14.77-32.4,21.63-32.4,21.63s-28.29,53.958-27.217,111.966,31.344,95.346,31.344,95.346,12.1,14.118,34.8,22.017c21.773,7.591,54.091,9.051,60.851-4.835-1.483-17.458-42.684-22.791-74.536-20.677-39.332,2.611-66.98,24.262-57.941,22.67,6-1.052,2.323-6.207-10.876-19.561-6.351-6.417-18.266-12.636-25.856-26.807-22.526-42.042-42.164-40.825-42.164-40.825s2.843,10.212,5.8,14.98a16.512,16.512,0,0,0,7.335,6.439s-11.772-29.364-27.659-32.162-12.358,4.293-12.358,4.293A38.721,38.721,0,0,0,417,1816.29a59,59,0,0,0,8.74,10.389s-.918-10.821-14.383-23.411-19.626-10.332-19.626-10.332-1.471,7.3.763,13.144,6.118,10.057,8.154,10.212,2.965-3.6,0-9.592-7.092-14.648-8.917-13.763-4.625,2.212,1.6,17.3,16.6,37.408,20.4,42.286,12.7,18.7,21.021,36.323,36.3,20.656,36.3,20.656-15.246-22.56-25.944-42.241a305.243,305.243,0,0,1-16.839-36.51s8.962,15.489,19.66,35.149,23.123,43.592,23.123,43.592a91.692,91.692,0,0,0,17.282,8.241,182.61,182.61,0,0,0,22.847,6,313.332,313.332,0,0,1-32.207-39.4c-14.383-21.276-25.192-45.715-25.192-45.715s8.375,24.44,22.747,45.715,34.7,39.366,34.7,39.366,9.294,9.128,46.468,7.3,33.17-6.393,69.025-7.3,49.42,16.556,74.4,3.668S750.808,1861.8,735.5,1840.6s-72.431.164-89.467,0c0,0-15.744,1.726-28.124-21.619s-38.665-30.051-38.665-30.051-19.362-5.532-34.3-16.176-16.208-13.5-25.447-26.452-19.24-5.322-17.625,8.608,12.535,33.5,24.252,40.6,20.048,27.77,20.048,27.77,26.719,55.984,54.489,36.921c3.563-2.456-3.319-14.305-3.319-14.305a57.207,57.207,0,0,0-25.59-18.277c-17.071-6.207-42.706-6.573-42.706-6.573a180.5,180.5,0,0,0-27.847-1.372c-13.9.564-17.923,2.832-28.567,3.055s-37.827-10.168-50.495-14.206c-23.035-7.335-21.187-12.093-40.814-14.6s-19.915,11.662-19.915,11.662,1.471,3.85,6.837,6.992,14.648,5.532,14.648,5.532-.144-4.005-6.638-8.3-18.808-10.245-19.4-8.851,6.638,7.467,17.7,13.354,26.391,10.219,26.391,10.219l1014.67,58.3a111.443,111.443,0,0,1,98.539,83.327c19.376,75.412-36.013,221.773-45.3,210.811-13.182-15.553-30.213-14.041-53.111-6.614s-60.253,13.321-78.159-13.038-35.789-26.2-57.838-21.173-54.632-2.5-58.311-35.963-3.313-66.533,7.37-71.26,0-22.726,0-22.726c-11.242-34.549,25.049-41.163,24.2-48.383s-93.844,1.129-93.844,1.129-22.87-20.323-31-15.4-13.792,59.475-3.4,55.18c6.453-2.66,5.814-32.93,6.193-45.785s-8.92-16.1-14.51-19.33c-7.959-4.588,29.108-17.715,59.164-24.145a268.813,268.813,0,0,0,54.81-18.472,149.122,149.122,0,0,0,38.091,31.134c16.095,9.108,33.516,17.136,43.286,22.07,4.07,2.055,7.036,2.413,7.036,4.448s-3.13,2.4-7.036,3.677c-6.865,2.253-18.081,4.362-26.464,5.493-9.127,2.986-21.337,9.384-21.337,9.384s-3.2-15.847-15.56-23-34.885-6.9-34.885-6.9-25.055.354-36.4,12.454-11.266,34.893-9.592,36.2,13.154-10.755,17.518-14.83,20.911-4.718,20.911-4.718c84.213-5.459,60.2,60.206,60.2,60.206s-14.372,40.584-22.371,54.25-15.008,13.46-15.008,13.46-10.583,1.227-20.322-3.133c-6.149-2.756-37.232-32.225-51.764-57.074-8.294-14.176-10.57-28.3,0-30.821,15.3-3.648,14.392,31.408,13.96,53.8-.227,11.684-.874,24.427-17.16,35.909s-23.987,12.069-25.3,9.6c-.168-5.332,16.2-10.886,24.426-9.6,14.539-1.161,17.555,10.18,20.346,14.128s7.17,8.683,17.277,15.972c-4.364-1.022,21.551,11.612,13.231,18.172-17.161,13.526-103.609-47.485-106.537-45.151s47.647,52.965,99.742,61.2,99.762-9.22,108.116-7.748-5.65,36.12-70.031,31.7-80.1-18.675-103.237-36.1-49.721-53.835-72.866-18.521-54.137,5.057-78.218,1.546c-15.506-2.259-70.89,3.161-108.364,7.307a112.4,112.4,0,0,0-62.489,27.87q-3.165,2.823-6.1,5.876a65.337,65.337,0,0,1-32.421,18.468l-168.071,38.52A207,207,0,0,0,442.363,2421.89l-7.369,249.424a3.5,3.5,0,0,0,6.883,1.029,200.962,200.962,0,0,0,7.181-48.913c.479-38.453-6.962-62.246-6.962-62.246H427.354a3.5,3.5,0,0,0-3.439,4.174c2.543,12.888,9.078,53.116-.884,85.349-12.031,38.93-41.4,54.415-41.4,54.415s-62.358,30.179-115.469-33.985-53.631-135.12-53.631-135.12-.682-65.669,32.24-93.068,73.592-12.769,73.592-12.769,21.477,4.113,49.676,31.75a206.287,206.287,0,0,1,40.017,56.03,3.493,3.493,0,0,0,5.1,1.346l10.058-6.82a3.5,3.5,0,0,0,1.19-4.421c-4.716-9.732-21.83-43.448-43.871-68-26.018-28.98-58.9-45.179-58.9-45.179s-64.013-31.938-120.466,11.429S157,2559.52,157,2559.52s8.838,89.653,74.637,155.449c57.495,57.494,111.8,50.1,124.593,47.318a3.51,3.51,0,0,0,2.771-3.5l-2.036-98.916a3.5,3.5,0,0,1,3.088-3.55c7.751-.946,27.775-5.826,37.289-30.974,9.868-26.086,5.512-52.883,3.7-61.4a3.5,3.5,0,0,0-3.427-2.772H376.276a3.489,3.489,0,0,0-3.5,3.528,133.213,133.213,0,0,1-.653,15.483,22.728,22.728,0,0,1-6.943,13.2c-.109.09-.214.174-.323.263-1.854,1.309-17.238,11.293-32.7-6.225a51.261,51.261,0,0,1-12.887-39.514c.01-.11.019-.214.029-.324.085-2.193,1.4-24.9,19.171-23.131,14.3,1.424,24.041,14.331,27.82,20.3a3.5,3.5,0,0,0,4.813,1.085l17.8-11.154a3.522,3.522,0,0,0,1.29-4.513,114.229,114.229,0,0,0-9.656-16.467c-6.963-9.811-17.629-20.4-17.629-20.4s-38.584-42.734-75.7-10.526-12.645,98.87-12.645,98.87a142,142,0,0,0,29.569,49.766c15.987,17.247,33.12,22.729,40.96,24.413a3.5,3.5,0,0,0,4.235-3.537l-2.79-89.321a3.5,3.5,0,0,1,2.472-3.458l294.763-90.667s4.524-14.475,28.152-31.1,39.711-22.418,50.43-18.594,3.85,24.7,3.85,24.7l19.469-5.527s4.115-1.484,5.1,1.582-2.693,3.945-2.693,3.945l-21.871,6.489s15.732,10.721,12.2,21.4-13.154,14.715-43.453,14.387-49.266-10.7-49.266-10.7L359.648,2561.1a3.422,3.422,0,0,1-.528.114c-.889.121-3.771.5-5.377.525-.527.01-.93-.111-2.216-.2a16.916,16.916,0,0,1-3.114-.582,3.375,3.375,0,0,0-.837-.112l-205.254-.866s-1.254-47.386,8.121-82.379,41.574-71.3,41.574-71.3-34.6,21.6-49.7,63.484-10.7,104.043-10.7,104.043,2.264,60.758,55.375,128.555c18.71,23.885,41.831,39.451,63.934,49.6,4.109,1.887,7.109-4.112,3.133-6.264l-1.255-.685c-41.576-22.832-55.371-49.809-55.371-49.809H17.946A16.8,16.8,0,0,0,1.11,2709.8a16.5,16.5,0,0,0,11.151,17.559L245.533,2850.7a421.743,421.743,0,0,0,179.155,48.525l512.319,21.859a521.758,521.758,0,0,1,286.539,100.7l275.7,202.414a2.161,2.161,0,0,1,.868,1.993l-9.609,81.9a2.162,2.162,0,0,0,3.149,2.167l7.888-4.125a2.24,2.24,0,0,1,3.1.995,2.162,2.162,0,0,0,4.144-1l-5.923-83.218a2.16,2.16,0,0,1,2.089-2.313l28.782-.9a2.156,2.156,0,0,0,2-1.515c2.148-6.923,12.15-35.823,28.163-31.411s5.465,27.4,2.745,32.777a2.15,2.15,0,0,1-1.834,1.177l-36.93,1.571a2.159,2.159,0,0,1-2.246-1.987c-.589-7.763-1.257-34.7,17.776-35.294,18.808-.589,17.164,26.931,16.207,35.448a2.154,2.154,0,0,0,2.222,2.391l22.919-.775a2.161,2.161,0,0,1,2.217,1.88l11.414,87.3a2.162,2.162,0,0,1-1.921,2.43l-85.834,8.877a2.18,2.18,0,0,1-1.049-.154l-18.02-7.46a2.142,2.142,0,0,0-.828-.167h-25.256a195.526,195.526,0,0,1-108.4-32.8l-65.758-43.8a172.36,172.36,0,0,1-18.722-14,23.964,23.964,0,0,0-9.065-5.015c-3.866-1.159-14.445,2.942-36.34,5.4s-33.708-5.4-33.708-5.4-14.559-9.706-23.944-17.916-76.228-15.444-74.832-5.877,53.991,17.645,57.79,15.8,10.774-31.446,9.08-34.436c-.343-.6-8.361-1.943-21.028-3.289-15.708-1.667-37.619-4.01-46.939-12.157a328.966,328.966,0,0,0-28.211-22.416s-31.583-17.048-31.594-19.639c-.006-1.323,23.6,3.6,46.949,4.683,22.033,1.019,41.256-2.478,43.848-1.837,1.3.322,23.721,17.043,47.039,31.336,22.821,13.988,46.557,25.541,46.32,27.583-.224,1.926-24.175-.487-49.608-1.373-28.477-.994-54.114.5-58.836-.619s-10.486-2.645-20.092-10.044-18.735-18.737-18.735-18.737-4.131,7.028-7.375,13.654-5.6,12.849-5.6,12.849a135.78,135.78,0,0,0,34.5,25.917c21.227,11.162,55.708,7.375,57.3,18.237s2.291,28.208-20.928,30-49.131-22.522-71.948-22.835c-15.325-.21-57.274-.138-83.171-.069a61.308,61.308,0,0,0-38.22,13.5l-31.1,24.969A62.436,62.436,0,0,1,889.9,3275c-7.129,3.1-18.154,11.424-16.75,33.146,2.056,31.8-38.731,28.34-38.731,28.34s-11.612-6.92-21.349,0c-4.771,3.39-21.841,23.329-40.548,27.961-19.313,4.783-40.157-6.215-38.237-27.961,3.764-42.639,59.4-31.97,57.246,1.7s-32.892,15.346-34.347,14.552-12.919-10.4-24.774-10.4c-8.51,0-16.979,4.575-21.081,7.157a3.358,3.358,0,0,0-1.184,4.379l4.143,8.057a3.37,3.37,0,0,0,3.989,1.678l5.54-1.713a3.368,3.368,0,0,1,3.59,1.072l8.961,10.84a3.367,3.367,0,0,1,.494,3.486l-2.194,5.057a3.367,3.367,0,0,0,1.721,4.418l9.146,4.064a3.368,3.368,0,0,0,4.457-1.737l2.02-4.657a3.367,3.367,0,0,1,3.4-2.012l13.754,1.289a3.367,3.367,0,0,1,2.756,1.971l2.95,6.557a3.368,3.368,0,0,0,4.371,1.724l10.048-4.205a3.367,3.367,0,0,0,1.777-4.474l-2.779-6.251a3.368,3.368,0,0,1,1.113-4.1l9.284-6.67a3.367,3.367,0,0,1,3.848-.057l3.409,2.3a3.366,3.366,0,0,0,4.66-.888l7.5-10.923a3.367,3.367,0,0,0-1.221-4.889l-7.571-3.951a3.368,3.368,0,0,1-1.78-3.437l1.81-13.361a3.368,3.368,0,0,1,2.745-2.864l4.572-.817a3.366,3.366,0,0,0,2.665-4.17l-3.126-11.9a3.367,3.367,0,0,0-4.127-2.4l-8.033,2.149a3.367,3.367,0,0,1-3.489-1.135l-7.505-9.279a3.367,3.367,0,0,1-.237-3.9L796.4,3293a3.367,3.367,0,0,0-1.01-4.6l-10.617-6.957a3.368,3.368,0,0,0-4.807,1.213l-4.669,8.617a3.365,3.365,0,0,1-2.96,1.763h-12.9a3.367,3.367,0,0,1-3.135-2.136l-2.063-5.251a3.368,3.368,0,0,0-4.423-1.88l-12.059,5a3.369,3.369,0,0,0-1.664,4.733l2.076,3.78a3.366,3.366,0,0,1-.931,4.314l-9.212,6.909a3.368,3.368,0,0,1-4.08-.029l-3.327-2.571a3.367,3.367,0,0,0-4.923.893l-7.441,12.03a3.367,3.367,0,0,0,1.341,4.775l8.311,4.213a3.367,3.367,0,0,1,1.845,3.032c-.027,3.673-.31,11.066-2.09,13.116-2.4,2.762-8.5-1.163-21.325-1.616-7.04-.249-17.029,4.469-26.865,11.078-7.816,5.254-15.494,12.536-21.878,13.1-14.155,1.258-9.357-37.584,15.763-29.513s11.7,35.07-1.006,36.443-25.489-10.033-33.985-10.62-6.449,9.937,0,8.273,6.838.591,6.838.591l3.617,5.464a3.37,3.37,0,0,1,.078,3.592l-.573.955a3.367,3.367,0,0,0,1.08,4.574l3.883,2.471a3.366,3.366,0,0,0,4.837-1.37l1.229-2.529a3.367,3.367,0,0,1,3.029-1.9h5.964a3.367,3.367,0,0,1,3.327,2.85l.448,2.876a3.367,3.367,0,0,0,4.688,2.563l4.636-2.047a4.861,4.861,0,0,0,2.648-5.414,6.056,6.056,0,0,1,1.433-5.173l2.966-2.968a3.37,3.37,0,0,1,4.555-.191l1.456,1.23a3.368,3.368,0,0,0,4.82-.489l2.6-3.3a3.367,3.367,0,0,0-.823-4.915l-3.7-2.379a3.369,3.369,0,0,1-1.515-3.279l.92-6.857a3.366,3.366,0,0,1,3.072-2.91l2.32-.183a3.367,3.367,0,0,0,3.081-3.732l-.664-5.93a3.368,3.368,0,0,0-3.946-2.939l-4.864.88a3.368,3.368,0,0,1-3.34-1.357l-3.711-5.193a3.368,3.368,0,0,1-.249-3.509l.868-1.674a3.367,3.367,0,0,0-.969-4.244l-3.121-2.341a3.369,3.369,0,0,0-4.678.625l-1.657,2.128a3.366,3.366,0,0,1-2.657,1.3h-6.825a3.366,3.366,0,0,1-2.983-1.8l-1.392-2.657a3.367,3.367,0,0,0-4.1-1.614l-6.345,2.229a3.368,3.368,0,0,0-2.01,4.427l.06.149a3.368,3.368,0,0,1-.87,3.75l-3.6,3.258a3.367,3.367,0,0,1-3.556.607l-2.914-1.218a3.369,3.369,0,0,0-4.132,1.288l-2.94,4.574a3.369,3.369,0,0,0,1.143,4.734l4.609,2.674a3.368,3.368,0,0,1,1.666,3.192l-.483,5.79a3.363,3.363,0,0,1-3.1,3.079c-7.519.566-28.3,1.368-43.641-5.291-7.942-3.447-16.349-3.362-23.454-2.089a148.918,148.918,0,0,1-49.453.826L379.7,3331.43a143.522,143.522,0,0,0-22.188-1.752l-215.938-.268s15.727-17.187,18.126-18.339,17.01-1.753,24.942-10.929S200.318,3291,200.318,3291s16.915-2.612,16.465-12.966-9.322-5.85-16.465-6.954-15.561,1.693-12.333,1.781,23.835-1.781,23.835-1.781,7.619-.518,7.079-8.576-7.079-8.138-7.079-8.138a183.4,183.4,0,0,1-18.76.3c-8.855-.415-9.081-3.15-5.672-3.2,1.207-.018,4.5,1.772,9.183,2.34,8.134.99,19.142,1.066,19.142,1.066s5.842-.8,5.3-9.979-11.271-9.63-11.271-9.63-6.552-.668-12.461-.891-11.176,0-11.176,0-4.705.483-4.66-.823,4.66-.956,4.66-.956l21.065,1.779s7.912,3.167,7.689-6.165-11.645-11.833-15.106-12.228a126.868,126.868,0,0,0-14.142,0c-1.461.122,0-4.352,0-4.352s4.508-13.281,2.9-21.564-5.44-10.084-9.33-11.566-6.831-.183-6.231,5.636,1.673,6.84-.548,11.38-2.033,3.6-2.843,8.415A55.37,55.37,0,0,1,166,3214.87s-2.53,4.238-4.723,4.574c-4.588.7-22.846,45-22.846,45s-11.678,20.388-11.472,28.911,11.472,22.021,11.472,22.021,3.228,2.289,5.972,2.017,5.006-3.1,5.006-3.1a14.6,14.6,0,0,1-10.559,4.475,14,14,0,0,1-10.209-4.475s-11.32-9.828-12.918-23.75,11.236-21.348,11.236-21.348-15.635,11.58-27.745,18.077a87.993,87.993,0,0,1-15.38,6.547,12.134,12.134,0,0,0-8.253,9.05,12.623,12.623,0,0,0,.8,7.531c15.888,37.914,118.251,281.772,128.048,294.83,10.625,14.159-14.289,167.5-7.163,169.952s66.413-10.582,120.762,6.383c39.444,12.312,72.532,39.125,87.715,52.906a5.217,5.217,0,0,0,8.725-3.941c-.63-44.286-2.26-191.053,3.84-190.1,6.2.971,5.774,152.978,5.541,194.676a5.2,5.2,0,0,0,8.264,4.23c19.493-14.215,69.492-48.415,110.1-56.857,40-8.314,77.638-3.746,92.566-1.266a5.183,5.183,0,0,0,6.006-5.672c-3.461-32.1-17.452-165.044-12.746-173.617,5.355-9.755,17.031,7.227,19.332,20.059,2.018,11.252,12.557,143.283,15.121,175.628a5.2,5.2,0,0,1-6.291,5.495c-17.761-3.876-67.291-12.62-115.956-2.463-53.342,11.133-105.646,44.974-117.583,53.044a5.161,5.161,0,0,1-5.243.324c-12.2-6.233-64.123-31.26-126.329-39.341-55.9-7.261-99.336-.048-115.469,3.4a5.219,5.219,0,0,1-6.3-5.476l11.763-165.031a5.217,5.217,0,0,0-7.635-5l-.2.108a51.852,51.852,0,0,0-7.4,4.743,5.219,5.219,0,0,0-1.966,3.614l-19.869,211.689s-3.648-4.406,66.75-14.25,169.9,1.051,173.624,4.039,4.012,20.035,33.557,19.672,25.418-15.816,32.464-19.672c4.1-2.246,94.4-7.8,163.461-2.621s88.732,21.148,92.592,18.778c3.515-2.16-9.653-178.914-12.036-210.507a5.2,5.2,0,0,0-5.189-4.8h-5.58a5.31,5.31,0,0,1-5.048-3.47,19.5,19.5,0,0,0-4.316-7.054c-2.956-3.017-7.571-5.518-10.449-6.9a5.2,5.2,0,0,1-2.919-4.153c-.4-3.8-1.057-10.17-1.319-12.7-.278-2.683-6.575-7.035-10.023-9.229a5.143,5.143,0,0,1-2.338-3.812c-.323-2.986-1.426-8.093-5.135-11.861-3.667-3.726-9.882-6.147-13.691-7.362a5.2,5.2,0,0,1-3.59-4.541l-.807-9.89a5.213,5.213,0,0,0-4.766-4.778c-16.566-1.369-76.384-5.077-120.212,8.158-40.34,12.182-67.133,38.715-76.762,49.524a5.2,5.2,0,0,1-7.832-.061c-9.913-11.571-38.659-40.849-83.107-50.975-49.023-11.167-99.189-6.709-110.79-5.444a5.121,5.121,0,0,0-3.9,2.5,28.816,28.816,0,0,0-2.721,6.406,48.4,48.4,0,0,0-1.183,7.36,5.282,5.282,0,0,1-3.846,4.611c-3.867,1.093-9.831,3.283-13.1,7.019-3.164,3.615-3.8,8.679-3.835,12.008a5.2,5.2,0,0,1-3.12,4.682c-2.773,1.237-6.646,3.442-9.017,6.837-2.484,3.557-3.317,8.417-3.592,11.6A5.187,5.187,0,0,1,173,3636.2a28.476,28.476,0,0,0-8.923,5.395,25.558,25.558,0,0,0-5.4,8.222,5.227,5.227,0,0,1-4.8,3.179H146a5.221,5.221,0,0,0-5.211,4.9l-14.6,234.621a5.217,5.217,0,0,0,6.149,5.46c17.047-3.132,64.921-11.482,115.541-16.3,63.194-6.015,125.254-10.554,130.668-6.539s6.536,15.8,34.875,17.2,36.756-7.573,47.979-14.867c14.243-9.255,112.993-34.862,232.659,5.641,106.069,35.9,300.732,147.144,533.77,324.606a69.313,69.313,0,0,1,23.033,79.307c-34.494,92.442-3.391,181.738,43.88,226.868,26.278,25.089,35.218,28.672,55.149,32.681,75.025,15.093,184.333-6.233,226.723-83.745,56.965-104.162-26.79-273.453-152.17-290.042-76.214-10.084-161.3,17.308-187.915,92.936-38.821,110.318,61.85,268.365,173.617,268.6,112.034.232,213.627-124.048,180.166-240.714-23.787-82.934-109.049-122.15-197.528-105.5-103.862,19.545-166.045,104.317-144,187.915,27.653,104.859,167.063,105.546,188.936,195.064,11.965,48.965-9.883,130.057-184.19,265.571a42.5,42.5,0,0,1-26.729,8.926c-77.278-2.47-176.006-23.664-306.421,0-80.987,14.7-302.751-26.765-298.1-98.615s105.1-78.931,111.651-68.739,18.091,56.341,39.8,68.739,79.194,31.694,120.956,20.677c90.985-24,91.97-152.619,74.872-158.585-7.335-2.557-25.66-15.845-74.872-19.086-64.2-4.226-162.21,3.977-160.757,26.734,1.394,21.839,137.894,26.411,210.9,16.609,59.157-7.944,57.376-29.015,57.376-29.015s8.311-40.568-143.182-41.76-150.419,49-150.419,49,5.845,105.13,67.2,156.1c17.264,14.341,37.155,18.754,58.967,21.548,33.129,4.25,69.119-.462,95.031-12.328,14.98-6.856,20.676-13.914,31.054-26.279s37.191-108.123,43.937-133.878,45.488-20.359,39.285,14.991-17.058,46.519-17.058,46.519-19.773,20.444-24.811,7.238c-2.454-6.434,19.108-21.357,60.705,2.2q.975.554,1.915,1.11c27.624,16.375,28.7,56.037,2.353,74.389-23.342,16.257-61.882,44.006-122.349,89.781-106.6,80.7-156.788-11.288-253.846-85.288s-319.5-112.275-480,38.3-222.916,340.106-132,620S574.654,5925.52,574.654,5925.52s137.335,67.427,209.669,23.76,37.333-192-5.333-134.667,30,111.813,84.667,110.907,98-5.573,117.333-20.907,26.667-72.667,84-133.333,169.333-113.333,146.667-120.667c-16.479-5.332-154,36.5-230.667,52s-68.5-14.833-78.667,6.667,13.458,55.667,38,79.333,60.167,15.333,60.167,15.333l-5.5,92.5,92.991-29.549s9.126-2.5,8.509-5.451,3.375-3.5-11.5-10.5-48-17.5-48-17.5,68,73.666,83.5,67.5c12.648-5.032,27.25-81.375,48.5-140.5s61-87,36.5-96c-17.812-6.543-71.875,25.375-140.5,61s-79.531,69.2-134,81.5c-199.52,45.041-368.065-145.635-590,0S63.466,6148.511,76.406,6425.169s263.5,480.2,316.344,488.411c6.457,1,22.25,3.869,24.689,12.658,2.522,9.091-11.82,15.234-15.315,30.173-4.8,20.516,12.937,48.743,27.829,48.627,17.82-.138,36.585-40.894,25.621-60.259-5.023-8.873-14.2-12.974-14.2-12.974-6.319-2.826-14.511-3.738-15.281-1.82-1.153,2.873,14.535,11.69,20.281,14.92,37.58,21.119,69.406,8.5,121.476,19.1,33.67,6.854,67.335,13.7,96.309,39.929,13.794,12.482,25.921,28.811,47.21,30.4,17.5,1.307,35.457-7.775,35.293-8.388-.13-.486-12.784.4-22.674,8.388-1.956,1.58-8.893,7.183-11.156,15.646-6.2,23.174,26.16,54.654,26.163,54.661s33.281-31.929,26.512-53.283c-.246-.774-5.88-8.836-17.138-24.932-5.958-8.517-5.968-8.5-6.006-8.7-4.666-23.964,178.6-68.928,175.906-113.165-.833-13.67-19.154-22.8-16.4-44.524.435-3.427,1.924-15.182,11.38-21.646a25.506,25.506,0,0,1,14.4-4.132c8.778-.128,19.254,3.759,24.577,12.431,1.024,1.667,3.169,5.648,3.545,13.348,1.233,25.229-18.53,49.406-24.9,47.411a7.725,7.725,0,0,1-3.225-2.889c-1.2-1.782-2.557-5.225-1.252-7.256,2.817-4.394,20.818-.978,15.606-1.241,156.641,39.392,203.345,56.411,202.131,62.775-.086.455-1.426,2.228-4.106,5.771-7.865,10.4-10.832,12.767-12.413,15.264-10.279,16.244,24.423,59.729,24.423,59.729,21.879-24.119,31.314-48.427,25.6-59.207a29.37,29.37,0,0,0-11.251-11.685c-1.8-.919-6.336-3.23-11.141-2.467-11.809,1.876-21.749,21.775-15.223,31.8,3.543,5.441,12.18,8.34,17.49,5.733,5.621-2.758,6.58-11.23,7.117-11.043.411.144.234,5.245-3.42,8.775-3.049,2.948-6.773,3.113-8.763,3.2-1.444.064-7.081.314-10.257-3.264-2.1-2.364-3.329-6.633-3.343-6.661-.076-.823-.558-7.106,4.1-11.381a13.594,13.594,0,0,1,8.166-3.36c1.421-.124,5.241-.457,8.289,1.735,4.846,3.484,4.533,11.047,5.228,10.954.478-.063.787-3.66,0-8.291-1.111-6.541-3.495-9.777-3.808-11.335-1.509-7.512,33.465-34.243,96.962-41.006,44.771-4.77,139.421-3.414,155.55-3.223,5.416.064,16.147.1,18.023-4.642.349-.88.55-2.323-.154-2.974-3.032-2.809-24.584,7.483-30.465,23.727-7.462,20.612,10.617,49.954,26.658,49.795,14.791-.147,29.942-25.4,26.95-45.108-2.68-17.652-18.872-24-15.818-32.229,4.107-11.068,36.7-8.569,49.213-7.61,11.569.889,46.21,3.542,63.017,14.64,34.317,22.658,36.213,108.2-9.593,203.291" transform="translate(0.01 0.056)" fill="none" stroke="#000" stroke-linecap="round" stroke-linejoin="round" stroke-width="2"/>
</svg>
