<svg xmlns="http://www.w3.org/2000/svg" width="583.1" height="253.307" viewBox="0 0 583.1 253.307">
  <path id="Path_42" data-name="Path 42" d="M17301.029-22633.748H17103.15s-32.377-22.576-65.27-28.646-67.484,4.369-67.484,4.369l-33.986-86.375s-1.035-1.91,0-3.359,4.141-2.439,4.141-2.439l46.838,116.451a10.826,10.826,0,0,0,2.914,3.885,9.179,9.179,0,0,0,4.369,1.463l87.678-11.174s1.549-1.779,0-5.025c-6.3-13.223-20.3-45.3-65.8-83.1s-95.191-38.594-95.191-38.594l-28.238-74.906a13.253,13.253,0,0,1,3.359-8.48c3.521-4,12.256-4,12.256-4a6.307,6.307,0,0,0-3.4,5.584c0,4.006,3.4,10.436,3.4,10.436s-.992-2.426.863-3.535,6.561-.9,6.561-.9h76.891a11.083,11.083,0,0,1,5.109.9,7.356,7.356,0,0,1,2.881,3.52l11.7,25.318a25.59,25.59,0,0,0-5.689,7.262,16.789,16.789,0,0,0-1.2,8v19.2h-12.8s-3.1-.238-4.6,1.412-1.4,5.188-1.4,5.188v51.6s-.508,4.049,1.4,6.2,6.223,2.4,6.223,2.4h73.777s4.133.686,6.2-1.221,2.072-6.4,2.072-6.4V-22770a10.4,10.4,0,0,0-2.072-5.2,10.908,10.908,0,0,0-5-2.7h-25.6v-21.9s-5.1-7.35-11-8.2-11.2,4.551-11.2,4.551l73.4,162.4s4,9.4,1.6,15.6-11.2,9.2-11.2,9.2l-79.6,11.5s-11.312-1.088-18.662-7-7-8.549-9.338-13.7,0-6.9,0-6.9l4.6-1.4s4.672,12,12.021,17.5,17.379,4.5,17.379,4.5l68.8-10s7.951-.574,10.2-5.4-1.2-13.9-1.2-13.9l-70.6-156.049v13.049h37.949v-15.75s-.32-12.52-15.039-18.92a25.387,25.387,0,0,0-25.609,2.67l-10.7-23s-3.127-8.012-8.49-12.229-12.959-4.641-12.959-4.641l-79.062-1.131a10.466,10.466,0,0,0-4.889,5.951c-1.072,3.988,2,12.049,2,12.049l33.961,85.865-115.553,5.828v15.051s6.365,2.611,6.193,8.738-7.691,9.01-7.691,9.01l-4.309,66-36.8,2.908,7.191-77.918s.467-9.631,4.318-15.152,11.09-6.93,11.09-6.93h14.2v13.344s-8.064,2.611-8.758,8.738,6.758,10.068,6.758,10.068l-7.8,98.75-16.609,1.07s-4.762-.68-7.682-3.52-4-7.842-4-7.842v-12.318a7.808,7.808,0,0,1-4.709-2.691c-1.75-2.3-1-7.291-1-7.291l7.061-82.217s.754-10.186,5.539-16.092,13.6-7.535,13.6-7.535l127.793-5.539,50.008,127.475-192.746,23.719s-7.84-2.164-11.254-8.719-2.4-17.5-2.4-17.5h-50.92" transform="translate(-16717.93 22857.553)" stroke-linecap="round" fill="none" stroke="red" stroke-width="1" />
</svg>
