<svg xmlns="http://www.w3.org/2000/svg" width="471.909" height="252.707" viewBox="0 0 471.909 252.707">
  <path id="Path_48" data-name="Path 48" d="M15151.643-22188.607c-6.492,3.082-29.82,4.777-29.82,4.777s-53.538,1.738-102.79-3.723a639.548,639.548,0,0,0-91.677-3.318s-5.006-.936-7.262-3.521-1.76-6.822-1.76-6.822l-1.768-88.766a23.936,23.936,0,0,1,0-3.121c.114-1.658-3.016-3.541-3.016-3.541l50.6.465,30.551-12.379a6.453,6.453,0,0,0,3.307-5.109c.128-3.463-3.307-4.906-3.307-4.906l-25.54-13.848-52.6-.625a2.861,2.861,0,0,1-1.711-2.906c-.012-2.361,1.711-2.5,1.711-2.5h22.327a13.229,13.229,0,0,0,3.3-1.9,5.084,5.084,0,0,0,1.5-2.4v-23.912a5.3,5.3,0,0,0-1.5-2.8,7.472,7.472,0,0,0-3.3-1.3l-20.732-.8a4.27,4.27,0,0,1-2.051-1.219,7.547,7.547,0,0,1-1.255-2.561v-15.1a4.177,4.177,0,0,1,.992-2.369,5.865,5.865,0,0,1,2.587-1.232l40.65-.078,18.105-9.861a4.006,4.006,0,0,0,1.923-3.416,4.283,4.283,0,0,0-1.923-3.52l-18.105-10.4h-39.736s-2.229.131-3.353-.99-1.141-3.5-1.141-3.5v-3.67a3.764,3.764,0,0,0-.455-2.006c-.5-.594-2.234-.564-2.234-.564h-14.775a1.438,1.438,0,0,0-1.454.564,6.27,6.27,0,0,0-.473,2.518l.473,3.729a7.939,7.939,0,0,0,2.07,1.9c1.464.986,3.314,2.021,3.314,2.021l-29.778.443a13.456,13.456,0,0,0-4.673,1.168c-2.2,1.064-1.876,3.84-1.876,3.84l.538,16.334a5.712,5.712,0,0,0,2.106,4.1c1.984,1.354,5.83,1.316,5.83,1.316l29.739-.713s-3.265,1.121-5.2,1.926a11.942,11.942,0,0,0-2.543,1.291v15.293a2.923,2.923,0,0,0,1.19,2.105,8.8,8.8,0,0,0,3.318.977l8.243.463-66.837-1-17.7,13.811s-2.676,1.324-2.773,3.619,2.773,3.7,2.773,3.7l21.572,13.387,61.366-1.07s-8.081-.359-9.727,1.9-1.418,3.4-1.418,3.4.139,2.332-1.181,2.826a9.822,9.822,0,0,1-2.969.49l-26.677.7a11.156,11.156,0,0,0-4.23,1.666,5.142,5.142,0,0,0-1.7,3.111v22.785s.065,3.01,1.7,4.338,4.847.979,4.847.979h35.288a9.764,9.764,0,0,0-4.072,2.221,5.5,5.5,0,0,0-1.091,3.691l-1.356,98.316a2.988,2.988,0,0,0,.562,1.574,3.118,3.118,0,0,0,1.494.8l12.245,1.316-8.707,1.7s-31.5,1.811-67.8.113-70.167.117-70.167.117-61.844,1.752-80.628,7.783" transform="translate(-14680.4 22432.613)" fill="none" stroke="red" stroke-linecap="round" stroke-linejoin="round" stroke-width="1"/>
</svg>
