<svg xmlns="http://www.w3.org/2000/svg"  viewBox="0 0 580 96.006">
  <path id="Path_45" data-name="Path 45" d="M15168.008-22732.033l-3.653-.48-4.247-.557a88.047,88.047,0,0,1-10.264-8.158,140.23,140.23,0,0,1-10.33-11.01h-3.108a10.416,10.416,0,0,0-1.328-4.018,26.169,26.169,0,0,0-3.464-4.4,8.225,8.225,0,0,0-3.4,1.162,30.238,30.238,0,0,0-4.242,3.238s-3.2-8.934-6.734-9.582-4.016,2.2-4.016,2.2-4.436-7.029-7.512-8.162-4.793,3.629-4.793,3.629,3.271-1.521,4.793,0-.712,3.887.745,6.865,5.083,5.049,5.083,5.049a69.811,69.811,0,0,1-16.87-16.318c-7.439-10.3-12.887-24.867-12.887-24.867a3.315,3.315,0,0,0-2.525,0,12.766,12.766,0,0,0-3.174,2.2s-2.008-2.463-3.691-5.053-3.044-5.309-3.044-5.309h-5.051s-1.068-2.914-2.138-5.02a20.222,20.222,0,0,0-2.138-3.4,27.545,27.545,0,0,1-.971,3.4c-.453,1.068-.842.875-.842.875s-4.145.225-6.282,3.01-2.267,8.129-2.267,8.129a19.785,19.785,0,0,0,2.267,6.508,8.554,8.554,0,0,0,4.209,3.205s1.846,3.238,3.886,6.25,4.275,5.8,4.275,5.8l5.2,3.7,4.64,3.3a44.837,44.837,0,0,1,4.081,7.285,29.264,29.264,0,0,1,1.877,7.094l2.653,5.484,3.175,6.561a64,64,0,0,1-11.786-5.8,60.085,60.085,0,0,1-9.843-8.322v-8.287a38.589,38.589,0,0,0-3.271-8.389,73.447,73.447,0,0,0-6.056-9.1,12.37,12.37,0,0,1-3.982-1.941,17.009,17.009,0,0,1-3.271-3.629v-6.346s-1-1.586-2.752,0-6.864,11.916-6.864,11.916l-3.756,15.154a30.17,30.17,0,0,1-6.865,8.676,30.655,30.655,0,0,1-9.972,4.924s4.145-5.246,6.638-9.066a32.557,32.557,0,0,0,3.334-6.219l3.076-8.318c1.425-3.854,2.623-7.092,2.623-7.092a44.267,44.267,0,0,1,4.922-7.871,50.173,50.173,0,0,1,6.864-6.766l-1.736-1.447-2.149-1.791a36.959,36.959,0,0,0-4.338-10.881,89.142,89.142,0,0,0-9.262-12.176,64.078,64.078,0,0,1-7.155,6.9c-4.273,3.529-9.94,7.221-9.94,7.221s-.628,2.064-1.309,4.3-1.412,4.639-1.412,4.639l-3.107-3.758a84.116,84.116,0,0,1-4.7,8.291,73.207,73.207,0,0,1-5.538,7.252,6.664,6.664,0,0,1-1.909-2.3,16.843,16.843,0,0,1-1.2-3.787s-2.784.938-4.889,6.086-3.53,14.508-3.53,14.508-10.127,9.963-22.73,20.754-27.686,22.408-27.686,22.408a48.351,48.351,0,0,1-11.56,2.461,27.2,27.2,0,0,1-9.812-1.424,71.678,71.678,0,0,0,9.812-1.037,22,22,0,0,0,6.509-2.332,77.259,77.259,0,0,0,12.92-8.678,132.7,132.7,0,0,0,12.984-12.951,40.273,40.273,0,0,0,6.832-2.98,41.788,41.788,0,0,0,6.12-4.4l8.289-9.066a18.67,18.67,0,0,0,.712-5.051,34.8,34.8,0,0,0-.712-6.119,4.867,4.867,0,0,0,3.173,0,10.92,10.92,0,0,0,3.3-2.43,7.273,7.273,0,0,0-2.007-3.66c-1.619-1.49-2.866-.777-4.469-2.3s-.324-2.549-1.943-3.787-2.1-.041-4.533-1.166-2.525-4.242-5.181-3.334-31.116,36.912-31.116,36.912a13.9,13.9,0,0,0,7.35-2.074c3.626-2.268,7.155-6.992,7.155-6.992s7.966-13.7,10.621-15.541,0,8.158,0,8.158-.194,6.992-2.072,9.842-2.363-1.295-5.439,1.557-22.8,18.262-22.8,18.262a127.634,127.634,0,0,1-19.3,6.086,204.374,204.374,0,0,1-23.055,3.5s9.779-2.463,15.8-7.385,5.73-12.436,8.289-12.3,6.768,3.529,14.766-.777,17.227-16.447,17.227-16.447-9.01,5.115-16.319,2.3-7.578-10.855-12.921-13.568-10.037-.518-8.45,2.721,18.262,19.3,18.262,19.3-8.387-3.82-13.6-8.449a28.381,28.381,0,0,1-7.253-10.07s-3.5,3.3-3.5,4.662,1.651-1.684,3.5.777,1.125,4.955,3.886,9.066a35.237,35.237,0,0,0,7.155,7.383,29.755,29.755,0,0,1-11.041-6.607c-5.448-5.059-8.389-13.791-10.751-13.629s-6.411,3.488-5.828,7.285,4.631,3.563,8.16,7.9a53.439,53.439,0,0,1,5.958,9.453s-3.343.1-9.714-6.477-15.77-19.814-15.77-19.814a51.977,51.977,0,0,1-5.568,11.268c-3.667,5.473-8.161,10.361-9.1,10.621s-1.781-1.846-3.627,0-1.651,5.7-3.756,7.383-2.72-2.475-4.663-.648-16.481,18.133-16.481,18.133a37.784,37.784,0,0,1-7.993,5.65,29.4,29.4,0,0,1-8.715,2.512h-223.1" transform="translate(-14588.518 22826.697)" fill="none" stroke="red" stroke-linecap="round" stroke-linejoin="round" stroke-width="1" />
</svg>
