<svg xmlns="http://www.w3.org/2000/svg" width="601.092" height="118.578" viewBox="0 0 601.092 118.578">
  <path id="Path_57" data-name="Path 57" d="M14981-21553.783h-117.358a63.263,63.263,0,0,1-22.579-4.635c-10.791-4.7-20.584-14.145-20.584-14.145s-4.644-4.953-9.722-10.072-10.591-10.408-10.591-10.408-16.851-17.977-30.382-22.924-33.517-4.666-33.517-4.666-58.359-3.537-108.124-5.609-90.936-2.678-90.936-2.678-9.062-.2-9.062,8.287,9.063,8.74,9.063,8.74,9.949.48,17.63-4.205a126.94,126.94,0,0,0,14.121-10.145l27.543-28.369s6.413-7.152,18.783-6.895,17.774,6.895,17.774,6.895a63.87,63.87,0,0,1,7.029,10.031,26.581,26.581,0,0,1,2.837,8.947s.81,4.723,5.106,4.854,4.809-4.854,4.809-4.854.4-9.338-8.585-18.979-22.664-12.395-22.664-12.395a159.784,159.784,0,0,0-21.572-1.662,172.947,172.947,0,0,0-22.1,1.662s-42.231,9.125-39.622,56.539,39.622,55.887,39.622,55.887,23.992,8.162,47.521-5.549,28.941-43.875,28.941-43.875a102.423,102.423,0,0,0,2.387-13.523c.889-7.906,1.167-18.105,1.167-18.105s-.14-14.646,20.33-14.828,23.341,14.828,23.341,14.828,1.89,12.328,6.975,18.953,19.051-2.391,19.051-2.391a155.5,155.5,0,0,0,21.166-16.719,117.043,117.043,0,0,1,20.982-15.781s8.222-5.559,16.558-5.559c3.909,0,14.638,1.8,21.355,9.586a33.53,33.53,0,0,1,10.285,22.887v23.867a55.69,55.69,0,0,1-14.062,32.477c-13.411,14.584-34.137,14.367-34.137,14.367s-27.483.605-46.363-19.576-18.17-40.852-18.17-40.852-.267-21.5,10.228-35,31.75-19,31.75-19,14.193-2.3,26.973-.82a89.6,89.6,0,0,1,24.146,6.744,51.823,51.823,0,0,1,17.455,14.9c7.871,10.453,14.028,26.91,14.028,26.91s1.472,3.23,7.293,2.615,2.017-6.639,2.017-6.639a11.657,11.657,0,0,0-5.012-3.777,36.175,36.175,0,0,0-8.7-1.85,294.811,294.811,0,0,0-37.9-2.059,415.993,415.993,0,0,0-42,3.242s-47.462,6.238-81.865,6.746-56,1.721-56,1.721-10.9.648-19.871,6.234-16.014,16.107-16.014,16.107-7.3,9.537-14.751,17.322a169.452,169.452,0,0,1-15.04,13.82,63.38,63.38,0,0,1-15.767,9.2,63.086,63.086,0,0,1-17.918,3.369l-127.4.355" transform="translate(-14380.408 21670.246)" fill="none" stroke="red" stroke-linecap="round" stroke-linejoin="round" stroke-width="1"/>
</svg>
