<svg xmlns="http://www.w3.org/2000/svg" width="554.443" height="334.498" viewBox="0 0 554.443 334.498">
  <path id="Path_43" data-name="Path 43" d="M15942.52-22674.072s56.955,16,101.391-11.361,33.272-45.529,64.792-77.486c10.433-10.578,27.525-17.008,27.525-17.008s48.183-18.34,86.085-16.92,36.675-7.035,46.744-4.119,16.181,25.553,9.942,35.748-22.271,11.271-33.49,6.895-14.215-30.932-10.288-33.709c4.487-3.174,17.293,27.088,27.144,19.7,3.478-2.607,2.686-18.646,4.6-26.773,3.313-14.088,7.661-22.477,7.661-22.477s-2.7,12.918-1.751,24.736c.93,11.58,6.543,17.395,2.846,26.484-7.278,17.895-24.023,6.949-28.456,17.73-2.194,5.336.816,15.438,8.426,23.205,7.405,7.561,17.76,12.912,21.6,12,7.606-1.807,11.345-18.732,9.813-18.35s-5.8,16.215-14.229,18.35-22.1-10.172-17.185-10.172,27.283,17.719,33.258,20.457-3.723-11.387-11.657-9.143-10.979,21.039-17.828,17.369-13.364-23.322-7.658-34.4,27.087-11.658,34.058-8.229,12.686,29.906,8.914,35.754-24.422,2.342-30.972,9.676.915,17.943,5.257,20.342,20.648-9.855,29.544-7.656,3.754,9.676,6.039,16.457c2.67,7.922,10.449,13.959,3.218,20.342s-26.972,8.914-34.172,2.857-10.033-28.432-5.257-30.857c4.643-2.357,17.257,25.033,25.485,19.545,3.867-2.58,4.382-16.736,7.771-28.344a65.769,65.769,0,0,1,10.629-21.029s-8.114,19.088-3.314,33.029,8.48,18.053,8.3,29.992-126.763,45.035-130.533,36.121,40.229-14.4,39.086-10.627-46.144,14.74-46.943.912,48.8-28.57,48.343-23.656-49.885,18.342-52.742,1.43,65.485-30.973,66.914-26.4-69.771,21.371-72.743,7.885,65.143-28.457,65.886-24.914-69.429,29.029-71.714,6.971,68.8-31.889,67.6-26.629-75.031,26.574-74.916,3.83,38.286-25.486,38.286-21.258-49.027,15.889-47.542-3.2,74.514-32.8,71.485-26.516-73.429,25.771-77.028,9.373,70.569-36.23,70.8-29.2-75.885,28.172-77.37,7.029,79.313-31.547,73.257-24.459c-4.476,5.238-63.085,14.859-74.4,9.6s-5.844-10.4-5.844-10.4,144.847-47.3,162.972-38.975,68.491,202.059,68.491,202.059l-167.812,49.994s-14.114,6.686-22.151,3.27-10.221-11.107-13.209-22.164c-11.365-42.057-40.273-145.109-53.56-196.682-4.571-17.744-5.942-23.625-3.566-29.865s18.868-7.877,23.771-6.24,3.864,9.955,3.864,9.955-8.357,1.449-10.7,7.43,1.336,16.492,1.336,16.492,49.326,196.854,58.983,203.318,148.5-35.137,148.5-35.137,9.954-1.414,13.669-6.834,1.188-14.85,1.188-14.85l-56.383-198.5s-5.051-15.6-12.118-12.48,1.42,15.9-4.522,21.244-23.139,6.77-30.719,8.988c-21.969,6.43-50.755,16.041-71.87,21.322-14.245,3.563-17.085,4.977-25.554,2.229s-8.32-13.225-8.32-13.225-4.285-14.113-2.291-18.422,16.406-5.5,16.406-5.5l18.571-6.166s-27.636-45.018,19.462-55.861,41.007,39.668,41.007,39.668,27.189-9.807,34.469-8.023,4.9,8.768,4.9,8.768,19.983-12.928,33.8-7.877c10.017,3.662,59.354,209.857,59.354,209.857s4.531,28.9,20.5,41.453,48.73,8.318,48.73,8.318l72.43-1.187" transform="translate(-15942.385 22902.209)" fill="none" stroke="red" stroke-width="1"/>
</svg>
