<svg xmlns="http://www.w3.org/2000/svg" width="494.99" height="279.43" viewBox="0 0 494.99 279.43">
  <path id="Path_55" data-name="Path 55" d="M15566.8-21516.359s-6.412-6.221-14.918-8.295-19.1,0-19.1,0a120.5,120.5,0,0,1-18.105,1.02,102.111,102.111,0,0,1-17.1-2.205s-18.87-7-38.887-12.971-41.179-10.895-41.179-10.895,3.118-6.207,2.718-16.623-1.362-18.924-1.362-18.924,6.3,1.041,19.592,5.527,33.558,12.414,33.558,12.414,2.794,20.809-3.511,37.439-21.709,29.084-21.709,29.084a8.087,8.087,0,0,0,2.278,2.041,10.275,10.275,0,0,0,3.137,1.006s26.409-5.416,34.122-28.752-3.483-40.818-3.483-40.818-26.576-9.668-44.392-15.719-26.871-8.486-26.871-8.486,7.716,14.594,4.21,35.428-15.042,31.434-15.042,31.434-7.645,4.072-8.971,6.176,0,9.736,0,9.736a19.25,19.25,0,0,1,1.627,7.115,21.725,21.725,0,0,1-1.627,7.4,114.5,114.5,0,0,1-6.136,13.008c-4.6,8.717-12.272,21.859-12.272,21.859s-.547,1.289-3.552,4.082-8.468,7.09-8.468,7.09a50.088,50.088,0,0,0,4.461,13.742,47.313,47.313,0,0,0,8.742,11.184,29.944,29.944,0,0,0,5.681.635,29.593,29.593,0,0,0,5.66-.635s-4.465-3.271-12.524-13.387-5.925-16.066-5.925-16.066,7.581-1.861,14.191,5.65,11.029,18.555,11.029,18.555,5.712-5.84,13.71-19.678,18.282-35.672,18.282-35.672a9.441,9.441,0,0,0,.948-4.02,18.049,18.049,0,0,0-.948-4.953,97.747,97.747,0,0,0-14.388-9.846,162.525,162.525,0,0,0-18.492-8.436,53.2,53.2,0,0,0,11.092-.654,18.7,18.7,0,0,0,7.4-3.238l12.956,14.3,13.109,14.473a38.447,38.447,0,0,0,5.8-10.312,67.639,67.639,0,0,0,3.006-13.723s-10.155-4.105-20.48-7.109-20.82-4.908-20.82-4.908a11.1,11.1,0,0,1-6.176,4.406c-4.274,1.227-10.921.5-10.921.5s-26.4-15.42-58.393-15.7-53.2,9.441-53.2,9.441,1.453-2.289,3.02-4.49,3.244-4.312,3.244-4.312a186.794,186.794,0,0,1,52.753-6.736c29.3.521,57.61,13.336,57.61,13.336s16.079-13.523,19.8-30.248-4.908-36.654-4.908-36.654-9.6,1.223-33.47-11.811-40.332-32.791-40.332-32.791l-18.788-23.867s7.822,20.834-15.951,87.713-59.72,68.736-59.72,68.736-46.382-10.5-11.09-112.371,68.587-82.437,68.587-82.437,18.915,6.621,10.7,58-16.092,67.8-16.092,67.8l-39.713-16.018s4.811.641,9.28-10.223-.771-15.641-.771-15.641-6.087-3.236-11.095,11.326,1.152,17.922,1.152,17.922,9.942,5.324,19.188,9.2a176.91,176.91,0,0,0,17.791,6.3,157.994,157.994,0,0,0,7.017-16.219c3.223-8.846,5.875-19.166,5.875-19.166s-8.759-2.891-19.338-5.43-22.979-4.725-22.979-4.725-23.826,3.738-46.833-.684-45.2-17-45.2-17-19.828-18.357-45.793-19.676-45.89,12.238-45.89,12.238" transform="translate(-15072.521 21701.557)" fill="none" stroke="red" stroke-linecap="round" stroke-linejoin="round" stroke-width="1"/>
</svg>
