<svg xmlns="http://www.w3.org/2000/svg" width="435.187" height="90.146" viewBox="0 0 435.187 90.146">
  <path id="Path_56" data-name="Path 56" d="M15563-21087l-22.787,9.438c-10.82,4.48-20.492,8.488-20.492,8.488s-11.437,4.988-23.031,4.1-23.349-7.652-23.349-7.652l-27.252,63.051s-8.283-9.754-20.344-13.393-27.9-1.164-27.9-1.164,15.789-5.369,27.9-2.623a47.135,47.135,0,0,1,20.344,10.748s4.483-11.826,11.3-27.271,15.956-34.51,15.956-34.51a27.805,27.805,0,0,0-10.227-3.381,46.974,46.974,0,0,0-12.625.842l-19.127,4.23s-8.8,3.668-17.727,2.609-17.988-6.84-17.988-6.84-12.22-7.482-19.8-11.355-10.536-4.135-10.536-4.135-11.471,13.268-18.369,29.264-9.223,34.721-9.223,34.721,13.627-6.348,27.592-5.078,28.267,10.156,28.267,10.156-9.6-9.654-22.342-12.193-28.607,2.037-28.607,2.037a86.28,86.28,0,0,1,7.829-29.643c7.152-15.023,20.778-30.447,20.778-30.447a38.812,38.812,0,0,1,12.034,3.234,105.2,105.2,0,0,1,14.582,8.445,69.106,69.106,0,0,0,11.849,6.139,22.961,22.961,0,0,0,9.438,1.395l-23.486,53.656a92.314,92.314,0,0,0-17.461-1.928,95.089,95.089,0,0,0-17.62,1.928s-52.72,14.406-102.67,16.166-94.784-18.789-94.784-18.789l-18.32-9.816-15.622-12.764" transform="translate(-15128.467 21097.504)" fill="none" stroke="red" stroke-linecap="round" stroke-linejoin="round" stroke-width="1"/>
</svg>
