<svg xmlns="http://www.w3.org/2000/svg" width="208.095" height="207.93" viewBox="0 0 208.095 207.93">
  <path id="Path_88" data-name="Path 88" d="M15793.158-20019.574s-52.111,31.709-31.488,58.77,99.732,11.084,99.732,11.084,20.467-.27,40.869-15.352,32.51-53.5,40.363-47.461-60.543,44.576-71.244,62.813-35.777,39.609-37.092,45.191,1.84,10.283,2.219,19.715-.4,9.59.885,17.359,2.145,12.115,5.377,12.01,4.02-4.943,4.078-12.01-.361-13.832,0-16.3,1.061-2.35,1.674-5.293a44.86,44.86,0,0,1,1.715-6.012c.395-1.234,4.818-5.012,7.8-8.326s2.119-3.732,4.141-4.947,12.529-3.453,20.188-9.891,10.443-15.855,10.443-15.855-1.549-.494,11-5.588c23.883-5.971,63.7-25.711,58.516-31.559-4.973-5.605-55.662,26.1-60.066,34.463s-2.7,13.488-3.215,16.717-37.654,76.5-37.654,76.5-3.078,5.387-7.26,3.178-2.545-7.391-2.545-7.391a96.546,96.546,0,0,1,4.691-16.74c3.213-8.152,15.521-28.346,18.08-20.314s-40.07,3.127-40.07,3.127-1.668,25.242,3.1,33.928a20.323,20.323,0,0,1,1.744,16.3s-2.135,4.941-3.957,5.361-3.33-3.691-3.33-3.691a169.055,169.055,0,0,1-7.311-25.652c-3.182-15.3,1.768-26.242,1.768-26.242s-8.678,6.742-10.539,15.053-5.9,49.479-4.32,52.143,9.332-6.271,11.383-17.416c.7-3.762,1.479-5.852.006-12.687s-3.184-14.473-3.184-14.473-2.271-5.992-4.658-5.992-4.877,5.992-4.877,5.992-8.758,24.711-13.338,33.877,3.6,13.264,7.924,3.344,10.291-41.434,10.291-41.434" transform="translate(-15755.722 20020.947)" fill="none" stroke="#303030" stroke-linecap="round" stroke-linejoin="round" stroke-width="2"/>
</svg>
